<?xml version="1.0" encoding="utf-8"?>
<!-- Generator: Adobe Illustrator 28.0.0, SVG Export Plug-In . SVG Version: 6.00 Build 0)  -->
<svg version="1.1" id="Layer_1" xmlns="http://www.w3.org/2000/svg" xmlns:xlink="http://www.w3.org/1999/xlink" x="0px" y="0px"
	 viewBox="0 0 2500 2500" style="enable-background:new 0 0 2500 2500;" xml:space="preserve">
<style type="text/css">
	.st0{fill:#232323;}
	.st1{fill:#424242;}
	.st2{fill:#FFFFFF;}
</style>
<circle class="st0" cx="1250.6" cy="1249.4" r="1249.4"/>
<path class="st1" d="M1890.7,1855.9H824.2c-151.7,0-284-114.6-284-266.2v-1.6v88.7c0,151.7,132.3,284,284,284h1066.5
	c153.3,0,284-133.9,284-284V1588C2174.7,1739.7,2042.4,1855.9,1890.7,1855.9z M538.6,1091.1v-121L340.1,642.5
	c-11.3-17.7-16.1-33.9-14.5-50v138.8c0,12.9,4.8,25.8,12.9,40.3L538.6,1091.1z"/>
<path class="st2" d="M1890.7,539.2H396.6c-59.7,0-93.6,51.6-53.2,106.5l195.2,338.8v605.1c0,154.9,112.9,284,266.2,284h1084.3
	c153.3,0,284-130.7,284-284V824.8C2174.7,669.9,2044,539.2,1890.7,539.2z"/>
<path class="st0" d="M631.3,1536.1c16.8-21.5,34.5-41.4,49.1-63.3c32.8-49.1,64.4-99,96.1-148.8c31.2-49.2,64-97.1,103.5-140.2
	c62.6-68.1,138.9-110.3,230.5-124.9c37.6-6,75.5-9.6,113.5-9.7c59.8-0.2,119.5,0.2,179.3,0.8c65.7,0.6,131.3,1.7,196.9,2.7
	c36.7,0.5,73.3,0.9,110,2c35.4,1.1,64.3-10.9,85.2-39.9c7.5-10.3,14.5-21,22.7-33c-4.4,0-6.6,0-8.7,0c-55.7-0.1-111.4-0.3-167.2-0.4
	c-68.4-0.2-136.8-0.4-205.2-0.5c-67-0.2-134.1-0.9-201.1-0.2c-64.2,0.6-128,5.2-190.2,22.8c-60.4,17.1-115.1,44.6-159.8,89.7
	c-10.3,10.4-19.3,22-30.2,34.6c1.4-5.2,2.1-8.9,3.3-12.5c19.6-57.3,51.4-106.9,93-150.7c59.8-63,133.1-99.1,218.6-112.1
	c38.3-5.8,76.8-9.4,115.6-9.7c75-0.6,149.9-0.7,224.9-0.6c74.3,0.1,148.6,0.8,222.8,1c65.7,0.2,131.4,0.1,197.1,0.3
	c48.7,0.2,97.4,0.6,146.1,0.9c1.7,0,3.5,0.2,6.3,0.4c-6.9,10.2-13.3,19.7-19.7,29.2c-41.3,61.1-82.4,122.4-124.1,183.3
	c-21.2,31-45.9,58.8-75.2,82.6c-40.2,32.6-86.3,50-137.5,50.7c-78.3,1.2-156.7,0.2-235,0.1c-19.5,0-38.9-0.5-58.4-0.5
	c-77.5-0.3-154.9-0.8-232.4-0.8c-39.3,0-78.2,3.9-115.3,18.4c-41,16.1-74.1,43-103.4,75.2c-31.2,34.4-56.6,72.9-81.3,112
	c-0.5,0.9-0.8,1.9-1.7,3.9c7.3,0,13.8,0,20.3,0c17.7,0,35.3-0.1,53,0.1c4.3,0.1,7-1.3,9.6-4.8c18-24.4,35.9-48.9,54.5-72.9
	c29.3-37.7,69.2-55.7,116-59.4c16.7-1.3,33.5-1.9,50.2-1.9c136.8-0.2,273.6-0.1,410.4-0.1c2.8,0,5.7,0,10,0
	c-6.6,10-12.2,18.7-17.9,27.2c-15.1,22.4-31.4,43.7-51.1,62.3c-27.9,26.3-61,41.2-98.8,45.2c-22.9,2.4-46,3.9-69.1,4.1
	c-65.7,0.5-131.4,0.4-197.1-0.3c-23.7-0.2-42.6,8.4-56.2,27.1c-18.3,25-35.6,50.7-53.4,76.2c-3.5,5-7.1,9.9-10.3,15.1
	c-8.8,14.2-21.7,20.4-38.2,20.4c-81.8-0.3-163.5-0.7-245.3-0.9c-49.2-0.1-98.3,0-147.5,0C636.4,1536.1,633.9,1536.1,631.3,1536.1z"
	/>
</svg>

