<?xml version="1.0" encoding="utf-8"?>
<!-- Generator: Adobe Illustrator 28.0.0, SVG Export Plug-In . SVG Version: 6.00 Build 0)  -->
<svg version="1.1" id="Layer_1" xmlns="http://www.w3.org/2000/svg" xmlns:xlink="http://www.w3.org/1999/xlink" x="0px" y="0px"
	 viewBox="0 0 2500 2500" style="enable-background:new 0 0 2500 2500;" xml:space="preserve">
<style type="text/css">
	.st0{fill:#141718;}
	.st1{fill:#424242;}
	.st2{fill:#FFFFFF;}
</style>
<circle class="st0" cx="1250.6" cy="1249.4" r="1249.4"/>
<g>
	<path class="st1" d="M247.4,1744.8c22.5-28.8,54-49.7,73.7-79.1c30.7,5.3,128.7-121.5,171.2-188.3
		c41.9-65.9,75.1-143.6,128.1-201.3c83.9-91.3,140-151.4,262.7-171c50.5-8,101.1-12.9,152.2-13c80.1-0.2,160.2,0.3,240.3,1
		c88,0.8,176,2.3,264,3.6c49.1,0.7,98.3,1.1,147.4,2.6c47.4,1.4,86.1-14.6,114.3-53.5c10-13.9,19.4-28.2,30.4-44.3
		c-5.9,0-8.8,0-11.7,0c-74.7-0.2-149.4-0.4-224-0.6c-91.7-0.2-183.4-0.5-275-0.7c-89.9-0.2-179.7-1.2-269.6-0.3
		c-86,0.8-171.6,7-254.9,30.6c-81,22.9-126.3,39.7-186.2,100.1c-13.8,13.9,57-83.3,42.4-66.5c1.8-6.9,33.5-37.7,35.1-42.5
		c26.3-76.7,39.9-45.8,95.6-104.5c80.1-84.4,66-71.7,180.6-89.1c51.4-7.8,103-12.6,154.9-13c100.5-0.7,200.9-0.9,301.4-0.8
		c99.6,0.1,199.1,1,298.7,1.4c88,0.3,176.1,0.1,264.1,0.4c65.3,0.2,130.5,0.8,195.8,1.2c2.3,0,4.7,0.3,8.4,0.5
		c-9.2,13.7-17.8,26.4-26.4,39.1c-55.4,81.9-110.4,164.1-166.3,245.7c-28.4,41.5-61.5,78.8-100.8,110.7
		c-53.8,43.6-115.6,67-184.3,68c-105,1.6-210,0.3-315,0.1c-26.1,0-52.2-0.6-78.3-0.7c-103.8-0.4-207.6-1-311.5-1
		c-52.7,0-104.8,5.3-154.5,24.7c-54.9,21.5-99.4,57.6-138.5,100.8c-41.8,46-75.8,97.7-108.9,150.1c-0.7,1.2-1.1,2.5-2.2,5.2
		c9.8,0,18.5,0,27.2,0c23.7,0,47.4-0.2,71,0.1c5.8,0.1,9.4-1.7,12.8-6.4c24.1-32.7,81.8-49,106.8-81c39.3-50.6,59-91.3,121.8-96.3
		c22.4-1.8,44.8-2.6,67.3-2.6c183.4-0.2,366.8-0.1,550.1-0.1c3.8,0,7.6,0,13.4,0c-8.8,13.4-16.3,25-24.1,36.5
		c-20.3,30-42.1,58.6-68.6,83.6c-37.3,35.3-81.8,55.2-132.4,60.5c-30.7,3.2-61.7,5.2-92.6,5.5c-88,0.6-176.1,0.5-264.1-0.3
		c-31.8-0.3-57,11.2-75.4,36.4c0,0,1.8,40.4-33.1,80.6l-34.9,41.8c-14.2,18.1-46.5,27.4-68.6,27.3c-109.6-0.5-219.2-0.9-328.7-1.2
		c-65.9-0.2-125.1,0-190.9,0C254.2,1744.8,250.9,1744.8,247.4,1744.8z"/>
	<path class="st2" d="M306.1,1684.4c22.5-28.8,46.2-55.5,65.8-84.9c44-65.8,86.3-132.7,128.8-199.5
		c41.9-65.9,85.8-130.2,138.8-187.9c83.9-91.3,186.2-147.9,309-167.4c50.5-8,101.1-12.9,152.2-13c80.1-0.2,160.2,0.3,240.3,1
		c88,0.8,176,2.3,264,3.6c49.1,0.7,98.3,1.1,147.4,2.6c47.4,1.4,86.1-14.6,114.3-53.5c10-13.9,19.4-28.2,30.4-44.3
		c-5.9,0-8.8,0-11.7,0c-74.7-0.2-149.4-0.4-224-0.6c-91.7-0.2-183.4-0.5-275-0.7c-89.9-0.2-179.7-1.2-269.6-0.3
		c-86,0.8-171.6,7-254.9,30.6c-81,22.9-154.3,59.8-214.1,120.2c-13.8,13.9-25.9,29.5-40.5,46.4c1.8-6.9,2.8-11.9,4.5-16.7
		c26.3-76.7,69-143.3,124.7-202c80.1-84.4,178.4-132.8,293-150.3c51.4-7.8,103-12.6,154.9-13c100.5-0.7,200.9-0.9,301.4-0.8
		c99.6,0.1,199.1,1,298.7,1.4c88,0.3,176.1,0.1,264.1,0.4c65.3,0.2,130.5,0.8,195.8,1.2c2.3,0,4.7,0.3,8.4,0.5
		c-9.2,13.7-17.8,26.4-26.4,39.1c-55.4,81.9-110.4,164.1-166.3,245.7c-28.4,41.5-61.5,78.8-100.8,110.7
		c-53.8,43.6-115.6,67-184.3,68c-105,1.6-210,0.3-315,0.1c-26.1,0-52.2-0.6-78.3-0.7c-103.8-0.4-207.6-1-311.5-1
		c-52.7,0-104.8,5.3-154.5,24.7c-54.9,21.5-99.4,57.6-138.5,100.8c-41.8,46-75.8,97.7-108.9,150.1c-0.7,1.2-1.1,2.5-2.2,5.2
		c9.8,0,18.5,0,27.2,0c23.7,0,47.4-0.2,71,0.1c5.8,0.1,9.4-1.7,12.8-6.4c24.1-32.7,48.1-65.6,73-97.7
		c39.3-50.6,92.8-74.7,155.5-79.6c22.4-1.8,44.8-2.6,67.3-2.6c183.4-0.2,366.8-0.1,550.1-0.1c3.8,0,7.6,0,13.4,0
		c-8.8,13.4-16.3,25-24.1,36.5c-20.3,30-42.1,58.6-68.6,83.6c-37.3,35.3-81.8,55.2-132.4,60.5c-30.7,3.2-61.7,5.2-92.6,5.5
		c-88,0.6-176.1,0.5-264.1-0.3c-31.8-0.3-57,11.2-75.4,36.4c-24.5,33.6-47.8,68-71.5,102.1c-4.7,6.7-9.6,13.3-13.9,20.3
		c-11.8,19.1-29.1,27.4-51.2,27.3c-109.6-0.5-219.2-0.9-328.7-1.2c-65.9-0.2-131.8,0-197.6,0
		C312.9,1684.4,309.6,1684.4,306.1,1684.4z"/>
</g>
</svg>
