<?xml version="1.0" encoding="utf-8"?>
<svg version="1.1" id="Layer_1" xmlns="http://www.w3.org/2000/svg" xmlns:xlink="http://www.w3.org/1999/xlink" x="0px" y="0px"
	 viewBox="0 0 2500 2500" style="enable-background:new 0 0 2500 2500;" xml:space="preserve">
<style type="text/css">
	.st0{fill:#232323;}
	.st1{fill:#424242;}
	.st2{fill:#FFFFFF;}
	.st3{fill:#BABABA;}
	.st4{fill:#F7F7F7;}
</style>
<circle class="st0" cx="1250.6" cy="1249.4" r="1249.4"/>
<path class="st1" d="M1705.3,1789H853.9c-121.1,0-226.7-91.4-226.7-212.5v-1.3v70.8c0,121.1,105.6,226.7,226.7,226.7h851.4
	c122.4,0,226.7-106.9,226.7-226.7v-70.8C1932,1696.3,1826.4,1789,1705.3,1789z M626,1178.5v-96.6L467.5,820.5
	c-9-14.2-12.9-27-11.6-39.9v110.8c0,10.3,3.9,20.6,10.3,32.2L626,1178.5z"/>
<path class="st2" d="M1705.3,738H512.6c-47.7,0-74.7,41.2-42.5,85L626,1093.5v483c0,123.6,90.2,226.7,212.5,226.7H1704
	c122.4,0,226.7-104.3,226.7-226.7V966C1932,842.3,1827.7,738,1705.3,738z"/>
<path class="st3" d="M2500,1242.9c-2.6,547.4-359.4,1012.4-851.4,1177.2c-124.9,42.5-258.9,64.4-398,64.4
	C562.9,2484.5,5.2,1929.4,1.3,1242.9v7.7C1.3,1941,560.3,2500,1250.6,2500c139.1,0,273.1-23.2,398-64.4
	c494.6-166.1,851.4-633.7,851.4-1185V1242.9z"/>
<path class="st4" d="M1647.3,64.4C1522.4,21.9,1388.5,0,1249.4,0C559,0,0,559,0,1249.4v7.7C3.9,570.6,561.6,15.5,1249.4,15.5
	c139.1,0,273.1,23.2,398,64.4c493.3,164.9,848.8,629.8,851.4,1177.2v-7.7C2500,698.1,2143.2,230.6,1647.3,64.4L1647.3,64.4z"/>
<path class="st0" d="M700,1533.8c13.4-17.1,27.5-33,39.2-50.5c26.2-39.2,51.4-79,76.7-118.8c24.9-39.2,51.1-77.5,82.7-111.9
	c50-54.4,110.9-88.1,184-99.7c30-4.8,60.2-7.7,90.6-7.8c47.7-0.1,95.4,0.2,143.1,0.6c52.4,0.5,104.8,1.4,157.2,2.1
	c29.3,0.4,58.5,0.7,87.8,1.6c28.2,0.9,51.3-8.7,68.1-31.8c6-8.3,11.5-16.8,18.1-26.4c-3.5,0-5.2,0-7,0c-44.5-0.1-89-0.2-133.4-0.4
	c-54.6-0.1-109.2-0.3-163.8-0.4c-53.5-0.1-107-0.7-160.5-0.2c-51.2,0.5-102.2,4.2-151.8,18.2C982.7,1122,939,1144,903.4,1180
	c-8.2,8.3-15.4,17.6-24.1,27.6c1.1-4.1,1.7-7.1,2.7-9.9c15.7-45.7,41.1-85.4,74.3-120.3c47.7-50.3,106.3-79.1,174.5-89.5
	c30.6-4.7,61.3-7.5,92.3-7.7c59.8-0.4,119.7-0.5,179.5-0.5c59.3,0.1,118.6,0.6,177.9,0.8c52.4,0.2,104.9,0.1,157.3,0.3
	c38.9,0.1,77.7,0.5,116.6,0.7c1.4,0,2.8,0.2,5,0.3c-5.5,8.2-10.6,15.7-15.7,23.3c-33,48.8-65.8,97.7-99,146.3
	c-16.9,24.7-36.7,46.9-60,65.9c-32.1,26-68.9,39.9-109.8,40.5c-62.5,1-125.1,0.2-187.6,0.1c-15.5,0-31.1-0.4-46.6-0.4
	c-61.8-0.3-123.7-0.6-185.5-0.6c-31.4,0-62.4,3.1-92,14.7c-32.7,12.8-59.2,34.3-82.5,60c-24.9,27.4-45.2,58.2-64.9,89.4
	c-0.4,0.7-0.7,1.5-1.3,3.1c5.9,0,11,0,16.2,0c14.1,0,28.2-0.1,42.3,0.1c3.5,0,5.6-1,7.6-3.8c14.4-19.5,28.6-39.1,43.5-58.2
	c23.4-30.1,55.2-44.5,92.6-47.4c13.3-1.1,26.7-1.5,40.1-1.6c109.2-0.1,218.4-0.1,327.6-0.1c2.3,0,4.5,0,8,0
	c-5.2,8-9.7,14.9-14.3,21.7c-12.1,17.9-25.1,34.9-40.8,49.8c-22.2,21-48.7,32.9-78.9,36c-18.3,1.9-36.7,3.1-55.1,3.3
	c-52.4,0.4-104.9,0.3-157.3-0.2c-18.9-0.2-34,6.7-44.9,21.7c-14.6,20-28.4,40.5-42.6,60.8c-2.8,4-5.7,7.9-8.3,12.1
	c-7,11.4-17.3,16.3-30.5,16.3c-65.3-0.3-130.5-0.5-195.8-0.7c-39.2-0.1-78.5,0-117.7,0C704,1533.8,702.1,1533.8,700,1533.8z"/>
</svg>
